<svg version="1.1" id="Layer_1" xmlns="http://www.w3.org/2000/svg" xmlns:xlink="http://www.w3.org/1999/xlink" x="0px" y="0px"
	 width="100%" viewBox="0 0 1600 1066" enable-background="new 0 0 1600 1066" xml:space="preserve">
<path fill="none" opacity="1.000000" stroke="#000000" stroke-linecap="round" stroke-linejoin="round" stroke-width="11.000000"
	d="
M968.500000,533.500000 
	C956.869995,536.659485 945.780701,541.352112 934.502747,545.507446 
	C919.658203,550.976929 904.847778,556.539734 889.984253,561.956848 
	C887.763733,562.766296 885.346436,563.074768 882.997559,563.485962 
	C875.935547,564.722290 874.391663,561.227234 873.838440,555.515625 
	C871.615051,532.563721 886.941467,521.247803 903.045654,510.568848 
	C917.617004,500.906311 934.232910,495.261963 950.056885,488.126099 
	C968.982483,479.591553 988.380615,472.110962 1007.488708,463.973572 
	C1035.032715,452.243652 1062.591064,440.539520 1089.975220,428.443909 
	C1119.199585,415.535461 1149.133911,404.679504 1180.017212,396.565277 
	C1202.727661,390.598358 1224.695679,382.660583 1246.665649,374.442688 
	C1254.768799,371.411682 1261.796631,366.364288 1270.034668,364.127594 
	C1273.606323,363.157867 1276.825073,362.089355 1279.511353,359.511902 
	C1283.439697,355.742828 1283.087646,353.076508 1278.520142,349.970337 
	C1271.463257,345.171051 1263.291504,343.044159 1255.498535,340.003784 
	C1231.571777,330.668945 1207.279297,322.333221 1182.971802,314.083099 
	C1144.244019,300.938690 1105.343506,288.302704 1066.497314,275.508179 
	C1023.437927,261.325897 980.348083,247.277588 937.918762,231.214584 
	C919.570007,224.268051 900.312866,219.733505 881.504639,213.984772 
	C851.154053,204.708069 820.927063,195.013107 790.470947,186.099228 
	C765.162659,178.691986 740.083984,170.600861 714.987732,162.538223 
	C707.901367,160.261597 700.831787,161.329742 693.466858,162.228378 
	C676.244507,164.329773 661.045410,172.148788 645.030640,177.590195 
	C615.510071,187.620529 586.323547,198.624008 557.532471,210.578232 
	C514.041138,228.636063 470.659332,246.923828 426.017456,262.051483 
	C398.932220,271.229767 371.531921,279.299194 344.032990,287.115997 
	C329.981903,291.110199 317.882690,298.338440 309.924622,311.454254 
	C302.198395,324.187988 293.192078,336.300415 289.616333,351.028229 
	C286.961151,361.964172 286.168945,373.254517 285.502808,384.500153 
	C284.997375,393.031677 284.561432,401.490143 286.393799,410.022797 
	C288.626678,420.420471 293.080902,429.334137 300.400970,437.093414 
	C303.704529,440.595245 307.641296,443.683990 309.585724,448.465149 
	C310.830811,451.526703 314.472931,451.101685 317.032745,451.894226 
	C329.627350,455.793671 342.175781,460.078400 355.042389,462.799500 
	C369.125092,465.777832 380.603516,474.858185 394.474731,478.107849 
	C398.306061,479.005463 401.949127,480.814880 405.993896,480.434875 
	C407.150604,480.326263 408.068970,480.231110 409.006317,480.992218 
	C415.602203,486.347656 423.689362,488.278351 431.455750,491.120880 
	C441.967041,494.968018 451.912262,500.466553 462.547882,503.849457 
	C493.995239,513.851990 525.136841,524.757019 556.499573,535.001221 
	C585.557922,544.492798 614.934875,553.029846 643.499146,564.002136 
	C667.336426,573.158691 691.729614,580.784851 715.129822,591.208557 
	C723.288086,594.842651 731.902466,599.180115 741.488525,598.364929 
	C742.492737,598.279541 742.585388,598.748962 742.984009,599.023254 
	C758.340942,609.591553 776.030762,615.103699 793.615417,619.542847 
	C807.989624,623.171448 820.710571,630.588501 834.964294,634.143066 
	C843.161133,636.187073 850.987732,639.702026 859.007141,642.479492 
	C861.575256,643.368958 864.083496,644.682190 867.016418,643.542236 
	C868.896851,642.811340 870.481018,644.175110 871.983887,645.028320 
	C892.238647,656.527100 912.987488,656.219543 933.421143,646.336914 
	C947.152039,639.696045 961.679504,635.741699 976.003113,631.009338 
	C990.682434,626.159302 1004.982910,620.280273 1019.522278,615.062073 
	C1043.894897,606.314575 1066.850708,594.274292 1090.960449,584.898315 
	C1116.802246,574.848755 1142.357300,564.058105 1167.993164,553.483398 
	C1192.858154,543.226624 1217.656006,532.807861 1242.503540,522.508667 
	C1260.297485,515.133179 1278.437744,508.580231 1295.550049,499.595215 
	C1298.516113,498.037781 1302.138428,497.729889 1305.548218,496.820679 
	C1307.926025,487.986572 1302.308228,480.164032 1291.988159,479.116760 
	C1286.373291,478.546936 1280.563110,477.905945 1275.000000,480.000000 
"/>
<path fill="none" opacity="1.000000" stroke="#000000" stroke-linecap="round" stroke-linejoin="round" stroke-width="10.000000"
	d="
M1276.500000,693.000000 
	C1277.105469,698.654175 1274.881714,703.961060 1274.234619,709.468811 
	C1273.134766,718.831665 1272.468750,728.197266 1273.173218,737.486877 
	C1273.994873,748.323303 1276.367065,758.956787 1280.906128,769.042236 
	C1283.095581,773.907471 1286.271851,777.931030 1289.513184,781.989441 
	C1292.181641,785.330444 1295.507935,786.509583 1299.992188,786.691711 
	C1308.417480,787.033936 1316.332397,790.139221 1323.440552,794.594788 
	C1329.525269,798.408813 1329.471313,806.823425 1324.015015,811.517456 
	C1315.411255,818.919128 1305.463013,823.865967 1295.011230,828.028137 
	C1281.558105,833.385254 1268.803101,840.350098 1255.448120,845.874634 
	C1233.857910,854.805847 1211.975708,863.027161 1190.029663,871.080872 
	C1161.408569,881.584106 1132.991211,892.643616 1104.502075,903.505554 
	C1067.135498,917.752136 1030.200562,933.126099 992.491821,946.476929 
	C981.711609,950.293701 970.845825,953.870911 959.996582,957.489624 
	C948.564087,961.302979 936.992065,961.237061 925.516418,957.942810 
	C915.437927,955.049622 905.328979,952.111206 895.557129,948.351562 
	C888.445557,945.615479 881.509399,942.740051 874.124756,940.574524 
	C867.792542,938.717529 861.228455,937.040649 855.127502,934.671692 
	C847.858582,931.849060 840.659058,929.575317 833.003296,928.477234 
	C831.813293,928.306580 830.665405,927.837830 829.500183,927.499207 
	C824.027649,925.908936 821.913391,923.192078 821.487610,917.500916 
	C820.789490,908.169678 819.340881,898.892334 819.500000,889.500000 
"/>
<path fill="none" opacity="1.000000" stroke="#000000" stroke-linecap="round" stroke-linejoin="round" stroke-width="10.000000"
	d="
M918.000000,786.000000 
	C920.376831,780.173889 925.720032,778.612061 931.001892,777.006226 
	C954.252502,769.937561 977.800476,763.728027 1000.454468,754.883423 
	C1016.854309,748.480713 1032.994385,741.346008 1048.961914,733.918091 
	C1072.425781,723.003052 1096.579712,713.779785 1120.539062,704.096680 
	C1145.530518,693.996460 1170.935425,684.922180 1195.964722,674.911682 
	C1213.148804,668.038757 1229.974609,660.273621 1247.010376,653.024292 
	C1255.951538,649.219604 1265.042969,645.767578 1273.982300,641.958618 
	C1278.656860,639.966858 1283.850708,638.169373 1283.492310,631.500427 
	C1283.375732,629.331848 1285.221436,628.776550 1286.512451,628.582825 
	C1296.861328,627.030090 1306.454834,629.764038 1315.442261,634.607239 
	C1317.965698,635.967224 1318.665527,639.224792 1317.924805,641.979797 
	C1316.232300,648.273376 1314.150146,653.631714 1306.578125,656.227722 
	C1287.177490,662.878723 1268.160156,670.649902 1249.001831,678.004822 
	C1230.826538,684.982422 1212.712280,692.121033 1194.489624,698.972595 
	C1164.849609,710.116882 1135.147339,721.062988 1105.951782,733.385681 
	C1079.011963,744.756348 1051.694580,755.237488 1024.492432,765.980835 
	C995.600342,777.391479 966.457764,788.127747 937.003174,798.009460 
	C924.895264,802.071655 912.478577,804.905518 899.986816,807.434814 
	C899.113403,807.611694 898.118408,807.802307 896.948914,807.083069 
	C890.487549,803.109131 882.270996,803.582092 875.995300,799.006470 
	C875.698364,798.789856 875.306580,798.482544 875.003845,798.526428 
	C861.872681,800.434387 850.777710,793.614014 839.044006,789.862366 
	C828.889709,786.615784 818.231445,784.385193 809.397400,777.634277 
	C807.792603,776.408020 804.860840,777.458679 802.483704,777.111511 
	C791.851624,775.559204 782.164978,771.004639 772.009277,767.968933 
	C766.457336,766.309387 760.807678,764.761841 755.544983,762.399719 
	C747.621765,758.843323 739.260986,756.903198 731.068604,754.285217 
	C702.557739,745.174377 674.379517,735.028198 645.979919,725.560303 
	C632.430115,721.042969 618.806152,716.602844 604.956238,713.176941 
	C593.720520,710.397644 583.582764,705.224731 572.993713,701.015869 
	C571.037781,700.238342 569.009583,699.636230 566.998535,699.004639 
	C535.667297,689.164795 504.346649,679.290649 472.994965,669.516174 
	C454.523651,663.757385 436.197998,657.528198 417.514160,652.447937 
	C413.043976,651.232361 408.914032,649.016418 405.015320,646.476501 
	C404.242371,645.972900 403.163300,645.226929 403.075165,644.491028 
	C401.654480,632.625854 394.116150,622.983765 391.332947,611.540649 
	C388.795929,601.109619 387.125305,590.662964 387.066956,579.999634 
	C387.005768,568.822876 386.071381,557.563293 388.539337,546.508789 
	C389.815582,540.792114 391.500000,535.166687 393.000000,529.500000 
"/>
<path fill="none" opacity="1.000000" stroke="#000000" stroke-linecap="round" stroke-linejoin="round" stroke-width="13.000000"
	d="
M1295.000000,787.000000 
	C1295.044189,788.885925 1295.132446,790.659607 1295.916260,792.534973 
	C1298.162109,797.909119 1297.463501,799.922729 1291.978394,801.941406 
	C1263.468994,812.433777 1236.048828,825.595276 1207.532959,836.089417 
	C1189.357056,842.778198 1171.481934,850.288452 1153.503662,857.509033 
	C1112.492065,873.980408 1071.474243,890.436584 1030.509521,907.023682 
	C1005.663330,917.084351 980.411621,925.998718 955.033569,934.599060 
	C950.738770,936.054504 946.643066,938.015320 943.283813,941.808533 
	C940.771179,944.645752 936.223328,944.660278 932.000000,944.660461 
	C922.047485,944.660828 909.689819,936.762085 906.500000,927.500000 
"/>
<path fill="none" opacity="1.000000" stroke="#000000" stroke-linecap="round" stroke-linejoin="round" stroke-width="10.000000"
	d="
M1264.500000,538.000000 
	C1256.529175,536.689758 1249.998169,540.990417 1242.997070,543.491760 
	C1220.593994,551.495850 1199.851074,563.386536 1177.494507,571.484741 
	C1152.808716,580.426697 1129.484619,592.586792 1105.002441,602.006409 
	C1074.556519,613.720764 1043.940308,625.045471 1014.045227,638.103516 
	C982.853760,651.727661 950.996826,663.659973 919.469543,676.424744 
	C905.408203,682.117920 894.554138,691.197693 887.636230,704.570435 
	C885.160889,709.355469 883.105286,714.578369 887.822510,720.150269 
	C890.919434,723.808472 888.698792,729.476807 890.072876,733.977783 
	C892.387451,741.559143 888.719116,749.468384 891.775879,757.089905 
	C892.466614,758.811951 890.691467,761.882690 889.437073,763.962097 
	C884.349304,772.395813 886.596619,780.607300 895.492981,785.512756 
	C901.080322,788.593689 907.060425,788.474548 912.979553,787.388611 
	C916.095154,786.817017 918.909180,786.891235 922.020325,787.367371 
	C927.300110,788.175476 932.370972,786.038940 937.479431,784.907288 
	C938.132324,784.762695 938.816833,784.600708 939.500000,784.500000 
"/>
<path fill="none" opacity="1.000000" stroke="#000000" stroke-linecap="round" stroke-linejoin="round" stroke-width="8.000000"
	d="
M1253.500000,374.000000 
	C1253.845459,377.180023 1253.207153,380.338837 1250.928345,382.421539 
	C1246.554688,386.418701 1246.810791,391.478821 1247.050171,396.497620 
	C1247.551270,407.005493 1248.386841,417.496948 1248.986694,428.000763 
	C1249.760986,441.562561 1252.694580,454.162109 1262.394165,464.598419 
	C1266.896973,469.443390 1269.903198,475.614319 1274.371338,479.924744 
	C1274.321289,488.066315 1269.439087,491.259827 1263.018311,493.551270 
	C1227.037842,506.391937 1191.087280,519.326965 1156.007446,534.517273 
	C1136.620483,542.912231 1116.488647,549.385376 1097.017700,557.542236 
	C1084.423706,562.817993 1071.866089,568.217590 1059.530640,574.064697 
	C1039.918091,583.361145 1019.651550,591.047607 999.473694,598.932617 
	C971.912598,609.702759 944.140076,619.931274 916.542847,630.610657 
	C913.902344,631.632446 910.967346,633.005371 909.468323,635.984070 
	C908.696594,637.517517 907.102417,638.072083 905.502014,638.507385 
	C896.255005,641.022156 894.008057,641.148743 888.979675,632.011169 
	C886.649292,627.776367 884.814331,623.172852 885.239014,618.521851 
	C885.547424,615.144043 884.736206,613.824951 882.028687,612.443726 
	C877.037292,609.897461 874.432129,605.888000 873.877136,600.011597 
	C873.007263,590.801147 871.492249,581.639587 869.936279,572.510864 
	C869.096741,567.585693 871.088806,564.431152 875.000000,562.000000 
"/>
<path fill="none" opacity="1.000000" stroke="#000000" stroke-linecap="round" stroke-linejoin="round" stroke-width="8.000000"
	d="
M1216.500000,365.000031 
	C1202.833374,370.333374 1189.243530,375.874664 1175.486084,380.962524 
	C1126.476074,399.087860 1077.932983,418.403381 1029.509399,438.023193 
	C1009.286194,446.217041 989.429382,455.393097 968.930603,462.808044 
	C945.609314,471.243835 923.091614,481.420502 900.514160,491.531555 
	C898.338806,492.505768 895.967407,492.915405 893.968384,494.459045 
	C886.940735,499.885681 879.987610,498.110168 873.557800,493.420776 
	C869.976868,490.809174 866.389648,489.546326 861.995667,489.953491 
	C857.927612,490.330414 854.530823,487.709198 851.084534,486.294128 
	C818.614380,472.961700 785.796936,460.530762 752.453003,449.643951 
	C717.674988,438.288879 683.065430,426.449951 648.553772,414.346741 
	C626.809753,406.721161 605.036804,399.123047 583.918335,389.682709 
	C564.768555,381.122437 544.338379,375.818665 524.501831,368.994629 
	C515.775635,365.992706 506.895355,363.430023 498.477173,359.549500 
	C496.017365,358.415588 493.363800,357.448547 490.500000,358.000000 
"/>
<path fill="none" opacity="1.000000" stroke="#000000" stroke-linecap="round" stroke-linejoin="round" stroke-width="10.000000"
	d="
M905.000000,925.500000 
	C897.911682,923.222534 895.408569,916.989197 893.083740,910.967651 
	C889.404602,901.438721 888.319031,891.612000 890.931274,881.482300 
	C892.191711,876.594543 896.607300,873.336975 897.710083,868.927490 
	C899.102356,863.360413 900.652588,858.423828 904.906494,854.401123 
	C905.743958,853.609253 906.530640,852.651245 907.515503,852.024414 
	C910.153381,850.345642 911.961060,848.469788 912.705200,845.044556 
	C913.329407,842.171204 916.136902,839.980835 918.518616,838.022705 
	C934.260193,825.080261 952.147034,815.853577 971.024475,808.563354 
	C990.748230,800.946350 1010.729492,793.997986 1030.485840,786.463013 
	C1063.603760,773.831787 1096.368286,760.337830 1129.908936,748.736572 
	C1159.013550,738.669617 1187.355469,726.388916 1215.991821,714.979614 
	C1233.702515,707.923218 1251.063965,699.869568 1269.093628,693.777283 
	C1281.331909,689.641846 1291.918457,682.658936 1303.484619,677.465820 
	C1306.106201,676.288818 1308.567749,674.741455 1310.504639,672.503967 
	C1316.867188,665.154175 1316.903687,661.293945 1312.500000,655.000000 
"/>
<path fill="none" opacity="1.000000" stroke="#000000" stroke-linecap="round" stroke-linejoin="round" stroke-width="10.000000"
	d="
M310.000000,619.000000 
	C301.461365,631.511963 295.858154,645.297729 292.536255,660.008179 
	C290.294830,669.933838 290.497620,679.860718 291.775116,690.028259 
	C293.000366,699.779785 294.537262,709.323120 298.021942,718.491638 
	C302.669098,730.718872 308.856995,742.081421 317.513397,751.988281 
	C317.740295,752.247925 318.371063,752.254272 318.470581,752.511414 
	C322.717529,763.481934 332.722992,768.654541 342.200531,772.506653 
	C349.788605,775.590820 357.384918,779.816833 365.992706,780.582214 
	C370.878967,781.016724 374.276947,785.201538 378.977509,786.576904 
	C390.712372,790.010376 402.198578,794.386780 414.055054,797.273865 
	C420.274506,798.788269 425.955688,800.580078 431.041321,804.445618 
	C432.558258,805.598572 434.423065,806.310913 436.494720,806.546326 
	C448.087341,807.863831 458.718567,812.482239 469.488373,816.530884 
	C494.176636,825.812012 519.576538,832.954956 544.460693,841.612915 
	C570.237549,850.581604 596.752075,856.783386 622.999573,864.001465 
	C639.335022,868.493713 655.739502,872.758789 671.953125,877.655151 
	C676.493103,879.026184 680.796082,881.571777 685.513916,882.422852 
	C694.984192,884.131287 703.375427,888.872620 712.493469,891.522583 
	C713.043823,891.682556 713.544312,892.507812 713.993408,892.449463 
	C722.302368,891.370789 728.442993,896.824219 735.511841,899.468384 
	C736.934509,900.000549 738.319519,900.687866 740.003052,900.533630 
	C750.612244,899.561218 759.044556,906.015442 768.503113,908.990173 
	C777.655579,911.868713 786.673889,915.795227 796.053650,917.120239 
	C802.787170,918.071411 808.969421,918.806946 814.559631,922.918945 
	C816.519653,924.360657 819.166687,923.513611 821.500000,923.000000 
"/>
<path fill="none" opacity="1.000000" stroke="#000000" stroke-linecap="round" stroke-linejoin="round" stroke-width="8.000000"
	d="
M1064.500000,512.500000 
	C1053.455444,518.416870 1041.575806,522.381653 1029.965820,526.912292 
	C990.059082,542.485046 950.336792,558.536560 910.046509,573.128479 
	C901.632263,576.175842 893.379761,579.782715 885.000000,583.000000 
"/>
<path fill="none" opacity="1.000000" stroke="#000000" stroke-linecap="round" stroke-linejoin="round" stroke-width="8.000000"
	d="
M1068.500000,671.500000 
	C1057.166626,675.500000 1045.818359,679.458130 1034.503418,683.509521 
	C1016.264587,690.040039 998.679504,698.118530 980.956482,705.900879 
	C962.484863,714.011841 943.668823,721.338684 924.999023,728.997620 
	C916.838318,732.345459 908.635376,735.592896 900.517334,739.040771 
	C897.754517,740.214294 895.017761,741.117188 892.000000,741.000000 
"/>
<path fill="none" opacity="1.000000" stroke="#000000" stroke-linecap="round" stroke-linejoin="round" stroke-width="6.000000"
	d="
M1048.500000,408.500000 
	C1008.299316,422.100098 968.391113,436.527740 928.511353,451.031158 
	C911.610107,457.177734 894.818604,463.628143 878.018372,470.048035 
	C875.884155,470.863556 874.000000,472.333344 872.000000,473.500000 
"/>
<path fill="none" opacity="1.000000" stroke="#000000" stroke-linecap="round" stroke-linejoin="round" stroke-width="5.000000"
	d="
M1108.000000,634.999939 
	C1094.833374,639.499939 1081.604492,643.826965 1068.511841,648.532715 
	C1031.017090,662.009338 993.252258,674.771667 956.947754,691.385864 
	C950.173279,694.486145 943.184814,697.159302 936.491699,700.483337 
	C935.257019,701.096558 934.006165,701.857971 932.500000,701.500000 
"/>
<path fill="none" opacity="1.000000" stroke="#000000" stroke-linecap="round" stroke-linejoin="round" stroke-width="14.000000"
	d="
M310.500000,450.500000 
	C300.963226,461.926117 290.750458,472.885132 285.982361,487.494232 
	C281.909943,499.971802 277.637390,512.365295 275.934113,525.491455 
	C275.027069,532.481384 273.721527,539.443115 274.041901,546.498108 
	C275.246399,573.023132 282.750763,596.430420 305.312347,613.251709 
	C310.173523,616.876099 314.830292,619.142761 320.475311,620.595947 
	C328.737976,622.722961 336.722504,625.979797 345.023743,627.897156 
	C360.899841,631.564270 375.365479,639.200623 390.967987,643.613159 
	C395.006439,644.755371 398.804108,646.067200 403.000000,645.000000 
"/>
<path fill="none" opacity="1.000000" stroke="#000000" stroke-linecap="round" stroke-linejoin="round" stroke-width="8.000000"
	d="
M875.000000,554.000000 
	C893.932373,542.987915 915.049744,537.109802 935.079102,528.688110 
	C955.723083,520.008057 977.023560,512.895752 997.991882,504.978516 
	C1012.397217,499.539398 1026.698486,493.836182 1041.444702,489.319489 
	C1042.858887,488.886322 1043.500000,489.553802 1044.500000,489.500000 
"/>
<path fill="none" opacity="1.000000" stroke="#000000" stroke-linecap="round" stroke-linejoin="round" stroke-width="7.000000"
	d="
M1072.000000,829.999939 
	C1062.333252,834.249939 1052.690063,838.554199 1042.995728,842.740112 
	C1010.875305,856.609558 978.197876,869.078003 945.517151,881.544922 
	C934.907959,885.592102 924.494385,890.153198 914.005859,894.514099 
	C912.380310,895.189941 910.833313,896.055542 909.000000,896.000000 
"/>
<path fill="none" opacity="1.000000" stroke="#000000" stroke-linecap="round" stroke-linejoin="round" stroke-width="6.000000"
	d="
M1052.500000,695.500000 
	C1034.666626,702.833374 1016.910095,710.361328 998.973938,717.433960 
	C986.275085,722.441528 973.253296,726.626404 960.520081,731.552002 
	C944.270630,737.837830 928.226013,744.653870 911.970337,750.923035 
	C905.592590,753.382812 899.365295,756.429138 892.500000,757.500000 
"/>
<path fill="none" opacity="1.000000" stroke="#000000" stroke-linecap="round" stroke-linejoin="round" stroke-width="6.000000"
	d="
M1044.500000,539.000000 
	C1033.295898,543.850830 1021.519897,547.069824 1009.977661,550.933228 
	C981.625793,560.423218 953.384583,570.233826 925.565430,581.166443 
	C917.519592,584.328308 909.631226,587.981689 901.500000,591.000000 
"/>
<path fill="none" opacity="1.000000" stroke="#000000" stroke-linecap="round" stroke-linejoin="round" stroke-width="6.000000"
	d="
M1024.000000,566.000000 
	C1016.095093,567.031799 1008.872375,570.356201 1001.533569,573.090088 
	C973.949890,583.365479 946.461365,593.900696 919.027710,604.571289 
	C912.340149,607.172485 905.634094,609.800537 899.077698,612.677124 
	C894.756409,614.573181 890.569031,615.521240 886.000000,615.500000 
"/>
<path fill="none" opacity="1.000000" stroke="#000000" stroke-linecap="round" stroke-linejoin="round" stroke-width="6.000000"
	d="
M335.500000,308.000000 
	C353.333344,313.333313 371.151794,318.717010 389.003693,323.987488 
	C412.321960,330.871887 435.660431,337.688080 459.005829,344.479950 
	C463.118164,345.676361 467.164062,347.205261 471.500000,347.500000 
"/>
<path fill="none" opacity="1.000000" stroke="#000000" stroke-linecap="round" stroke-linejoin="round" stroke-width="9.000000"
	d="
M733.000000,630.500000 
	C733.038635,634.681641 731.255371,638.481689 730.455444,642.491089 
	C728.148254,654.056274 727.180664,665.747986 727.032776,677.500427 
	C726.758484,699.291321 730.917969,720.261230 738.941406,740.523193 
	C740.829224,745.290588 743.681030,749.952209 742.500000,755.500000 
"/>
<path fill="none" opacity="1.000000" stroke="#000000" stroke-linecap="round" stroke-linejoin="round" stroke-width="8.000000"
	d="
M356.500000,656.500000 
	C355.461334,662.895386 353.159637,668.966553 352.332245,675.478699 
	C351.163849,684.675049 350.711243,693.784363 351.485229,703.001221 
	C352.886017,719.682678 355.624695,736.104309 361.034119,751.988403 
	C362.988556,757.727356 364.942047,763.527832 367.630157,768.935303 
	C369.600311,772.898621 370.004486,776.506836 368.500000,780.500000 
"/>
<path fill="none" opacity="1.000000" stroke="#000000" stroke-linecap="round" stroke-linejoin="round" stroke-width="8.000000"
	d="
M360.500000,343.500000 
	C350.474976,353.296722 349.840363,366.415680 348.669586,379.015747 
	C347.494080,391.667114 348.553833,404.480072 350.682556,416.968872 
	C352.979950,430.446899 355.172913,444.130859 362.876465,456.079651 
	C364.222229,458.167023 364.298706,461.254333 364.000000,464.000000 
"/>
<path fill="none" opacity="1.000000" stroke="#000000" stroke-linecap="round" stroke-linejoin="round" stroke-width="8.000000"
	d="
M405.500000,356.500000 
	C402.959412,357.493011 403.179657,360.021088 402.521515,362.007111 
	C397.248871,377.917358 393.088531,394.093689 393.563751,410.998199 
	C394.165405,432.399414 396.092926,453.611450 406.518799,472.989899 
	C407.735748,475.251770 407.468018,477.623627 407.500000,480.000000 
"/>
<path fill="none" opacity="1.000000" stroke="#000000" stroke-linecap="round" stroke-linejoin="round" stroke-width="8.000000"
	d="
M785.000000,498.500000 
	C781.223450,519.233826 781.347778,540.141846 783.131042,560.988770 
	C784.596436,578.118896 790.639099,594.010376 799.003906,608.997803 
	C800.915771,612.423401 802.256165,615.990723 802.000000,620.000000 
"/>
<path fill="none" opacity="1.000000" stroke="#000000" stroke-linecap="round" stroke-linejoin="round" stroke-width="8.000000"
	d="
M351.000000,507.500000 
	C351.634766,510.421173 348.831818,511.736023 347.943787,513.977722 
	C345.243195,520.794739 343.579346,527.872437 341.974365,534.994202 
	C338.720490,549.432312 341.360321,563.704102 343.025421,577.997070 
	C344.233673,588.369019 345.044769,598.810974 347.533295,608.991882 
	C348.320099,612.210693 349.012848,615.612915 350.627808,618.426636 
	C352.494781,621.679504 353.104431,624.932251 353.000000,628.500000 
"/>
<path fill="none" opacity="1.000000" stroke="#000000" stroke-linecap="round" stroke-linejoin="round" stroke-width="8.000000"
	d="
M794.500000,801.500000 
	C791.990479,807.758972 791.919739,814.464600 791.041199,821.005554 
	C789.230286,834.487183 789.621033,848.039185 791.094666,861.489624 
	C792.761658,876.703552 796.959961,891.419678 801.568726,905.978271 
	C802.671875,909.463074 804.298950,912.771729 804.500000,916.500000 
"/>
<path fill="none" opacity="1.000000" stroke="#000000" stroke-linecap="round" stroke-linejoin="round" stroke-width="9.000000"
	d="
M741.500000,787.000000 
	C736.692383,796.965210 736.063538,807.755737 735.541687,818.502014 
	C734.332336,843.406250 740.130188,867.138000 747.964355,890.511963 
	C749.036865,893.711609 749.870483,897.036072 749.500000,900.500000 
"/>
<path fill="none" opacity="1.000000" stroke="#000000" stroke-linecap="round" stroke-linejoin="round" stroke-width="6.000000"
	d="
M1015.500000,834.500000 
	C990.333313,844.833313 965.182190,855.204712 939.991028,865.477966 
	C931.881592,868.785034 923.611633,871.699951 915.516174,875.039246 
	C908.100769,878.098022 905.993347,877.892639 900.514343,872.485474 
	C900.011719,871.989502 900.003418,870.996582 899.000000,871.000000 
"/>
<path fill="none" opacity="1.000000" stroke="#000000" stroke-linecap="round" stroke-linejoin="round" stroke-width="9.000000"
	d="
M400.000000,688.500000 
	C400.728302,695.486633 400.229584,702.515320 400.309052,709.502197 
	C400.562286,731.763123 405.645142,752.894348 413.541656,773.484009 
	C415.922882,779.692932 419.067719,785.595825 421.045013,791.986084 
	C421.672150,794.012817 422.468964,795.905396 421.500000,798.000000 
"/>
<path fill="none" opacity="1.000000" stroke="#000000" stroke-linecap="round" stroke-linejoin="round" stroke-width="8.000000"
	d="
M738.000000,488.500000 
	C732.046326,499.769562 730.794983,512.071594 729.982727,524.498840 
	C728.508728,547.049866 733.654358,568.450500 740.960205,589.513794 
	C741.838928,592.047302 742.667297,594.708252 742.000000,597.500000 
"/>
<path fill="none" opacity="1.000000" stroke="#000000" stroke-linecap="round" stroke-linejoin="round" stroke-width="6.000000"
	d="
M505.500000,279.500000 
	C496.861694,281.652863 488.925385,285.744965 480.508087,288.524445 
	C455.985321,296.622192 431.495453,304.819763 407.005188,313.015503 
	C403.576141,314.163025 400.261963,315.833832 396.500000,314.500000 
"/>
<path fill="none" opacity="1.000000" stroke="#000000" stroke-linecap="round" stroke-linejoin="round" stroke-width="6.000000"
	d="
M1009.500000,866.500000 
	C1010.364258,868.558044 1008.477539,868.571899 1007.486328,868.965637 
	C991.839172,875.181213 976.167419,881.335205 960.499817,887.499573 
	C945.667419,893.335266 930.854614,899.222107 915.975037,904.935059 
	C913.945068,905.714478 911.844360,906.770142 909.500000,906.500000 
"/>
<path fill="none" opacity="1.000000" stroke="#000000" stroke-linecap="round" stroke-linejoin="round" stroke-width="4.000000"
	d="
M965.500000,450.999969 
	C948.166626,457.499969 930.815247,463.952362 913.506042,470.515930 
	C900.975037,475.267578 888.494507,480.152557 876.005005,485.012848 
	C873.731140,485.897797 871.164673,486.413696 870.000000,489.000000 
"/>
<path fill="none" opacity="1.000000" stroke="#000000" stroke-linecap="round" stroke-linejoin="round" stroke-width="12.000000"
	d="
M1306.000000,497.500000 
	C1310.036133,504.078857 1309.400269,507.905426 1303.503784,513.004395 
	C1295.089478,520.280701 1286.020874,526.338745 1275.008301,529.033997 
	C1270.888428,530.042175 1268.047607,532.860107 1266.004272,536.502380 
	C1265.640015,537.151733 1265.010864,537.851318 1265.046997,538.497375 
	C1266.025269,556.012146 1260.933350,573.506409 1264.559937,590.987549 
	C1267.570801,605.500488 1271.694580,619.607056 1284.000000,629.500000 
"/>
<path fill="none" opacity="1.000000" stroke="#000000" stroke-linecap="round" stroke-linejoin="round" stroke-width="8.000000"
	d="
M791.000000,649.500000 
	C789.351929,658.003662 786.532349,666.264404 785.981323,674.998840 
	C784.368530,700.563477 785.548462,725.749207 796.567627,749.468567 
	C799.451965,755.677185 802.966736,761.624084 806.581726,767.449280 
	C808.476318,770.502258 809.391724,773.510925 809.000000,777.000000 
"/>
<path fill="none" opacity="1.000000" stroke="#000000" stroke-linecap="round" stroke-linejoin="round" stroke-width="4.000000"
	d="
M1105.500000,853.500000 
	C1090.500000,858.833313 1075.471680,864.088623 1060.508057,869.522034 
	C1045.638062,874.921387 1030.848877,880.542664 1015.978333,885.940186 
	C1014.304932,886.547607 1012.333313,886.333313 1010.500000,886.499939 
"/>
<path fill="none" opacity="1.000000" stroke="#000000" stroke-linecap="round" stroke-linejoin="round" stroke-width="9.000000"
	d="
M896.500000,663.000000 
	C875.657532,678.508240 863.862244,699.122375 860.923035,724.991272 
	C859.692444,735.822144 858.157959,746.583984 859.505127,757.499390 
	C860.353455,764.373047 863.807373,770.312500 866.560181,776.473083 
	C868.410645,780.614380 870.921570,784.455444 872.970520,788.514893 
	C874.459045,791.464050 875.342773,794.620850 875.000000,798.000000 
"/>
<path fill="none" opacity="1.000000" stroke="#000000" stroke-linecap="round" stroke-linejoin="round" stroke-width="5.000000"
	d="
M559.000000,240.500000 
	C540.000000,247.833328 521.033142,255.254242 501.983856,262.457336 
	C494.248230,265.382385 486.340393,267.854645 478.484894,270.454346 
	C477.933746,270.636749 477.166656,270.166656 476.500000,270.000000 
"/>
<path fill="none" opacity="1.000000" stroke="#000000" stroke-linecap="round" stroke-linejoin="round" stroke-width="6.000000"
	d="
M989.500000,898.000000 
	C980.632996,899.496765 972.315369,902.802856 964.019714,906.050293 
	C948.285034,912.209839 932.703796,918.761353 916.970947,924.925842 
	C913.534119,926.272461 909.728638,926.678284 906.318542,927.465332 
	C904.894775,925.507690 905.864380,924.362915 906.449829,922.978760 
	C909.251953,916.353149 908.013794,909.405701 908.180420,902.504333 
	C908.386414,893.973450 903.883301,886.078308 905.500000,877.500000 
"/>
<path fill="none" opacity="1.000000" stroke="#000000" stroke-linecap="round" stroke-linejoin="round" stroke-width="8.000000"
	d="
M898.000000,808.000000 
	C898.142944,810.352417 896.423401,811.569702 895.007019,813.006958 
	C880.467163,827.761780 872.275635,845.675415 869.658630,866.020386 
	C868.823059,872.516418 871.240112,879.039978 872.500000,885.500000 
"/>
<path fill="none" opacity="1.000000" stroke="#000000" stroke-linecap="round" stroke-linejoin="round" stroke-width="5.000000"
	d="
M987.000000,820.000000 
	C966.166626,829.500000 945.326477,838.984985 924.505798,848.512695 
	C920.371399,850.404663 916.248169,850.870850 912.000000,849.000000 
"/>
<path fill="none" opacity="1.000000" stroke="#000000" stroke-linecap="round" stroke-linejoin="round" stroke-width="7.000000"
	d="
M444.500000,281.500000 
	C432.500000,286.000000 420.491577,290.477722 408.502472,295.006561 
	C397.381134,299.207550 386.224518,303.326630 375.500000,308.500000 
"/>
<path fill="none" opacity="1.000000" stroke="#000000" stroke-linecap="round" stroke-linejoin="round" stroke-width="7.000000"
	d="
M336.000000,706.500000 
	C337.168457,712.947510 336.418915,719.493225 337.564392,726.032532 
	C339.740662,738.455872 343.609650,750.294006 348.093048,761.964233 
	C349.623413,765.947815 350.994537,769.723145 350.000000,774.000000 
"/>
<path fill="none" opacity="1.000000" stroke="#000000" stroke-linecap="round" stroke-linejoin="round" stroke-width="8.000000"
	d="
M884.000000,499.000000 
	C883.573669,501.724823 881.877686,503.669647 879.999451,505.499420 
	C867.371704,517.801453 860.869446,533.320923 856.452698,549.987427 
	C855.444763,553.790771 854.602905,557.568604 854.500000,561.500000 
"/>
<path fill="none" opacity="1.000000" stroke="#000000" stroke-linecap="round" stroke-linejoin="round" stroke-width="6.000000"
	d="
M807.500000,707.500000 
	C805.965027,717.318481 807.813416,726.938232 809.588135,736.483582 
	C811.169373,744.988098 813.715759,753.283508 816.397522,761.533325 
	C817.475403,764.849182 818.983521,766.821045 822.500000,767.000000 
"/>
<path fill="none" opacity="1.000000" stroke="#000000" stroke-linecap="round" stroke-linejoin="round" stroke-width="7.000000"
	d="
M424.500000,734.500000 
	C425.720978,754.436523 430.588470,773.506836 437.889587,792.043518 
	C438.528625,793.665955 439.700653,793.290833 440.500000,794.000000 
"/>
<path fill="none" opacity="1.000000" stroke="#000000" stroke-linecap="round" stroke-linejoin="round" stroke-width="9.000000"
	d="
M637.000000,744.500000 
	C632.581177,763.960571 636.037964,783.217407 638.500000,802.500000 
"/>
<path fill="none" opacity="1.000000" stroke="#000000" stroke-linecap="round" stroke-linejoin="round" stroke-width="7.000000"
	d="
M318.500000,552.500000 
	C320.044403,556.541321 320.045441,560.772034 319.994202,564.999939 
	C319.833496,578.262512 322.920319,590.725403 328.962128,602.519409 
	C330.356201,605.240784 332.270599,607.541809 334.000000,610.000000 
"/>
<path fill="none" opacity="1.000000" stroke="#000000" stroke-linecap="round" stroke-linejoin="round" stroke-width="8.000000"
	d="
M884.500000,716.000000 
	C878.596252,718.609070 877.798035,724.124878 877.037598,729.505310 
	C875.708313,738.910400 876.543091,748.300171 878.638855,757.468262 
	C879.628540,761.797485 881.226074,766.383728 886.000000,768.500000 
"/>
<path fill="none" opacity="1.000000" stroke="#000000" stroke-linecap="round" stroke-linejoin="round" stroke-width="6.000000"
	d="
M404.500000,410.500000 
	C402.464569,413.739899 403.798553,417.279144 404.141876,420.484802 
	C405.769287,435.679016 409.080109,450.499847 415.436615,464.528717 
	C416.225098,466.268890 417.200012,467.699982 418.500000,469.000000 
"/>
<path fill="none" opacity="1.000000" stroke="#000000" stroke-linecap="round" stroke-linejoin="round" stroke-width="8.000000"
	d="
M705.500000,677.500000 
	C705.196289,687.881348 707.345032,697.977661 709.624023,707.971741 
	C711.328979,715.448364 714.295471,722.630249 716.388672,730.031433 
	C716.796143,731.472107 717.726074,731.752441 718.500000,732.500000 
"/>
<path fill="none" opacity="1.000000" stroke="#000000" stroke-linecap="round" stroke-linejoin="round" stroke-width="5.000000"
	d="
M674.500000,509.500000 
	C673.063477,513.333313 674.493958,517.191833 674.630127,520.995361 
	C675.056580,532.904114 676.955627,544.604980 681.473694,555.760620 
	C682.506775,558.311340 683.899597,560.395264 686.500000,561.500000 
"/>
<path fill="none" opacity="1.000000" stroke="#000000" stroke-linecap="round" stroke-linejoin="round" stroke-width="7.000000"
	d="
M711.000000,534.500000 
	C712.456116,548.193298 714.082581,561.855652 718.503296,574.998901 
	C719.362366,577.553101 719.911072,580.414185 723.500000,580.500000 
"/>
<path fill="none" opacity="1.000000" stroke="#000000" stroke-linecap="round" stroke-linejoin="round" stroke-width="6.000000"
	d="
M411.500000,588.500000 
	C410.724213,599.825684 410.199615,611.157166 414.539062,621.984314 
	C416.646179,627.241699 419.166656,632.333313 421.500000,637.500000 
"/>
<path fill="none" opacity="1.000000" stroke="#000000" stroke-linecap="round" stroke-linejoin="round" stroke-width="7.000000"
	d="
M716.500000,844.500000 
	C717.595032,855.389404 718.505066,866.311218 721.030151,876.992859 
	C722.239441,882.108276 723.762695,887.148926 723.000000,892.500000 
"/>
<path fill="none" opacity="1.000000" stroke="#000000" stroke-linecap="round" stroke-linejoin="round" stroke-width="6.000000"
	d="
M686.000000,684.500000 
	C685.325562,692.675110 688.552734,700.185974 689.998047,708.000366 
	C691.410156,715.635498 694.315125,722.712219 698.000000,729.500000 
"/>
<path fill="none" opacity="1.000000" stroke="#000000" stroke-linecap="round" stroke-linejoin="round" stroke-width="6.000000"
	d="
M328.500000,398.500000 
	C330.114929,402.341949 330.335083,406.410706 330.508667,410.499634 
	C331.005737,422.209686 334.973145,432.665894 342.000000,442.000000 
"/>
<path fill="none" opacity="1.000000" stroke="#000000" stroke-linecap="round" stroke-linejoin="round" stroke-width="5.000000"
	d="
M861.000000,490.500000 
	C861.128479,493.255524 859.154724,494.778351 857.503601,496.503448 
	C854.324585,499.824921 851.107300,503.112671 848.013794,506.512543 
	C843.260986,511.735870 841.314087,518.065186 840.994141,524.999756 
	C840.863342,527.834717 840.666626,530.666687 840.500000,533.500000 
"/>
<path fill="none" opacity="1.000000" stroke="#000000" stroke-linecap="round" stroke-linejoin="round" stroke-width="8.000000"
	d="
M855.500000,600.500000 
	C856.327148,613.002075 861.468140,624.097412 867.117554,634.938721 
	C868.522156,637.634277 868.993103,640.168396 869.000000,643.000000 
"/>
<path fill="none" opacity="1.000000" stroke="#000000" stroke-linecap="round" stroke-linejoin="round" stroke-width="6.000000"
	d="
M461.500000,615.500000 
	C460.784027,624.420105 462.628876,633.031006 465.100128,641.470703 
	C466.239716,645.362549 467.818207,649.257568 470.500000,652.500000 
"/>
<path fill="none" opacity="1.000000" stroke="#000000" stroke-linecap="round" stroke-linejoin="round" stroke-width="6.000000"
	d="
M424.000000,432.500000 
	C423.290222,443.315674 422.551575,454.071320 428.389099,464.064789 
	C429.709229,466.324738 431.312042,468.140961 433.000000,470.000000 
"/>
<path fill="none" opacity="1.000000" stroke="#000000" stroke-linecap="round" stroke-linejoin="round" stroke-width="7.000000"
	d="
M837.500000,884.500000 
	C836.441772,896.073364 839.803345,906.999329 842.567444,917.983032 
	C843.488159,921.641602 844.137756,925.246399 844.000000,929.000000 
"/>
<path fill="none" opacity="1.000000" stroke="#000000" stroke-linecap="round" stroke-linejoin="round" stroke-width="6.000000"
	d="
M825.500000,730.500000 
	C824.371704,742.226990 827.310181,753.229736 831.559448,763.976501 
	C831.763550,764.492737 832.833313,764.666626 833.500000,765.000000 
"/>
<path fill="none" opacity="1.000000" stroke="#000000" stroke-linecap="round" stroke-linejoin="round" stroke-width="4.000000"
	d="
M302.000000,567.500000 
	C302.817719,579.804260 304.604889,591.845337 311.500000,602.500000 
"/>
<path fill="none" opacity="1.000000" stroke="#000000" stroke-linecap="round" stroke-linejoin="round" stroke-width="6.000000"
	d="
M446.000000,763.500000 
	C445.837097,774.634033 447.071777,785.432190 453.470642,795.019592 
	C453.701508,795.365479 453.500000,796.000000 453.500000,796.500000 
"/>
<path fill="none" opacity="1.000000" stroke="#000000" stroke-linecap="round" stroke-linejoin="round" stroke-width="5.000000"
	d="
M598.000000,713.000000 
	C593.546326,719.153564 593.467163,726.381287 593.015625,733.500977 
	C592.762329,737.495483 592.666687,741.500000 592.500000,745.500000 
"/>
<path fill="none" opacity="1.000000" stroke="#000000" stroke-linecap="round" stroke-linejoin="round" stroke-width="6.000000"
	d="
M319.500000,717.500000 
	C319.444183,725.304382 320.620117,732.926453 322.403839,740.522583 
	C323.179932,743.827637 322.162262,747.183044 320.000000,750.000000 
"/>
<path fill="none" opacity="1.000000" stroke="#000000" stroke-linecap="round" stroke-linejoin="round" stroke-width="5.000000"
	d="
M453.000000,312.000000 
	C441.999176,315.731201 430.736420,318.781342 420.500000,324.500000 
"/>
<path fill="none" opacity="1.000000" stroke="#000000" stroke-linecap="round" stroke-linejoin="round" stroke-width="6.000000"
	d="
M612.500000,737.500000 
	C610.380005,747.166687 610.623962,756.830261 612.475342,766.504700 
	C612.659912,767.469421 612.500000,768.500000 612.500000,769.500000 
"/>
<path fill="none" opacity="1.000000" stroke="#000000" stroke-linecap="round" stroke-linejoin="round" stroke-width="10.000000"
	d="
M879.000061,564.500000 
	C880.833374,571.000000 883.873291,577.451843 884.135254,584.014587 
	C884.363037,589.720520 884.728638,595.451660 885.732666,600.957581 
	C886.563904,605.515869 886.512939,609.467712 884.500000,613.500000 
"/>
<path fill="none" opacity="1.000000" stroke="#000000" stroke-linecap="round" stroke-linejoin="round" stroke-width="6.000000"
	d="
M431.500000,610.500000 
	C431.855530,620.506897 434.526520,630.034729 437.500000,639.500000 
"/>
<path fill="none" opacity="1.000000" stroke="#000000" stroke-linecap="round" stroke-linejoin="round" stroke-width="5.000000"
	d="
M812.500000,810.500000 
	C809.459045,817.727844 808.551270,825.225586 809.461914,833.004456 
	C809.712158,835.141846 809.500000,837.333313 809.500000,839.500000 
"/>
<path fill="none" opacity="1.000000" stroke="#000000" stroke-linecap="round" stroke-linejoin="round" stroke-width="5.000000"
	d="
M656.500000,527.500000 
	C657.776733,534.972473 658.368286,542.580750 661.917053,549.542297 
	C662.985779,551.638855 664.099854,553.636169 665.500000,555.500000 
"/>
<path fill="none" opacity="1.000000" stroke="#000000" stroke-linecap="round" stroke-linejoin="round" stroke-width="6.000000"
	d="
M694.500000,856.500000 
	C695.683472,865.813660 698.060486,874.999451 697.500000,884.500000 
"/>
<path fill="none" opacity="1.000000" stroke="#000000" stroke-linecap="round" stroke-linejoin="round" stroke-width="5.000000"
	d="
M315.500000,408.500000 
	C316.063812,415.010559 315.685852,421.575043 317.363037,428.035553 
	C318.011597,430.533875 319.455902,432.353699 320.500000,434.500000 
"/>
<path fill="none" opacity="1.000000" stroke="#000000" stroke-linecap="round" stroke-linejoin="round" stroke-width="7.000000"
	d="
M668.500000,851.500000 
	C673.394409,859.441406 675.501648,867.820007 672.500000,877.000000 
"/>
<path fill="none" opacity="1.000000" stroke="#000000" stroke-linecap="round" stroke-linejoin="round" stroke-width="5.000000"
	d="
M577.500000,704.500000 
	C574.552429,710.043274 570.429077,715.093506 570.940002,722.004456 
	C571.155945,724.924744 571.745361,727.711609 572.500000,730.500000 
"/>
<path fill="none" opacity="1.000000" stroke="#000000" stroke-linecap="round" stroke-linejoin="round" stroke-width="5.000000"
	d="
M557.000000,697.000000 
	C554.865723,700.729004 553.604858,704.452087 554.330078,709.026917 
	C554.863159,712.389587 553.833374,716.000000 553.500000,719.500000 
"/>
<path fill="none" opacity="1.000000" stroke="#000000" stroke-linecap="round" stroke-linejoin="round" stroke-width="6.000000"
	d="
M858.000000,913.500000 
	C857.063660,918.676697 860.750732,922.307922 862.656555,926.427551 
	C864.057678,929.456238 864.870605,932.269470 864.500000,935.500000 
"/>
<path fill="none" opacity="1.000000" stroke="#000000" stroke-linecap="round" stroke-linejoin="round" stroke-width="6.000000"
	d="
M695.000000,542.500000 
	C695.362610,547.871338 695.135071,553.306335 696.979553,558.507263 
	C697.775513,560.751526 698.636108,562.906738 700.500000,564.500000 
"/>
<path fill="none" opacity="1.000000" stroke="#000000" stroke-linecap="round" stroke-linejoin="round" stroke-width="6.000000"
	d="
M639.250000,527.000000 
	C640.371887,534.291260 641.518616,541.573669 646.500000,547.500000 
"/>
<path fill="none" opacity="1.000000" stroke="#000000" stroke-linecap="round" stroke-linejoin="round" stroke-width="5.000000"
	d="
M471.000000,785.500000 
	C471.698608,792.842163 474.035187,799.570129 478.500000,805.500000 
"/>
<path fill="none" opacity="1.000000" stroke="#000000" stroke-linecap="round" stroke-linejoin="round" stroke-width="2.000000"
	d="
M909.000000,637.500000 
	C913.025757,641.367798 917.952271,639.470520 922.496155,639.352783 
	C924.060181,639.312195 925.757385,638.453735 927.500000,638.500000 
"/>
<path fill="none" opacity="1.000000" stroke="#000000" stroke-linecap="round" stroke-linejoin="round" stroke-width="4.000000"
	d="
M879.000000,923.500000 
	C880.500000,927.000000 881.827698,930.587952 883.555115,933.971863 
	C884.905701,936.617554 885.389526,939.180481 884.500000,942.000000 
"/>
<path fill="none" opacity="1.000000" stroke="#000000" stroke-linecap="round" stroke-linejoin="round" stroke-width="7.000000"
	d="
M850.000000,875.500000 
	C849.279907,881.715759 850.857727,887.612366 852.500000,893.500000 
"/>
<path fill="none" opacity="1.000000" stroke="#000000" stroke-linecap="round" stroke-linejoin="round" stroke-width="3.000000"
	d="
M672.000000,695.500000 
	C672.000000,701.500000 672.000000,707.500000 672.000000,713.500000 
"/>
<path fill="none" opacity="1.000000" stroke="#000000" stroke-linecap="round" stroke-linejoin="round" stroke-width="6.000000"
	d="
M439.000000,460.500000 
	C441.087128,465.800659 441.948669,471.560913 445.000000,476.500000 
"/>
<path fill="none" opacity="1.000000" stroke="#000000" stroke-linecap="round" stroke-linejoin="round" stroke-width="5.000000"
	d="
M636.500000,840.500000 
	C640.892090,841.463257 641.735474,844.644531 641.500000,848.500000 
"/>
<path fill="none" opacity="1.000000" stroke="#000000" stroke-linecap="round" stroke-linejoin="round" stroke-width="5.000000"
	d="
M638.500000,516.500000 
	C638.666687,519.500000 638.749695,522.507935 639.033630,525.496826 
	C639.186951,527.110840 638.106934,526.327087 637.500000,526.500000 
"/>
</svg>